:SAMPLES-PER-SECOND 30
:FRAME-RANGE 1-744
:FULLY-SPECIFIED
:DEGREES
210
root  -14.4329 39.011 -45.2537 -12.7218 21.3285 -10.7909
RightUpLeg  3.35878 -2.45404 3.79865
RightLeg  3.66671 -22.894 1.03097
RightFoot  -2.21135 -0.800976 9.81945
RightToes  5.82063e-011 0 -3.6325e-017
Spine  1.90275 -11.2086 17.3533
Spine1  12.5802 -8.74632 -9.88
HEad  -1.50345 0.469377 -2.65299
LeftShoulder1  3.18993 -4.67411 -33.001
LeftArm  3.54752 27.4561 -17.6543
LeftForeArm  6.00642 -73.5826 -44.8879
LeftHand  0.109377 -5.51784 -0.845138
RightShoulder  0.210146 -3.17486 60.8951
RightArm  6.22575 -4.17547 -7.67489
RightForeArm  8.23797 70.9594 35.5984
RightHand  4.65071 21.7525 19.0054
LeftUpLeg  18.6972 -4.55416 23.1714
LeftLeg  29.5536 11.0967 7.0738
LeftFoot  3.58155 -0.046278 0.187563
LeftToes  1.25507e-010 -3.78807e-010 5.71421e-011
211
root  -14.6037 39.0737 -43.9176 -11.8496 18.5692 -10.336
RightUpLeg  4.39403 -2.74096 4.32018
RightLeg  4.07691 -19.9232 1.98419
RightFoot  -4.70357 -0.561771 9.11498
RightToes  5.82063e-011 0 -3.6325e-017
Spine  0.464938 -11.4913 19.3087
Spine1  13.1152 -8.64656 -13.0858
HEad  -1.51354 3.05205 -3.08531
LeftShoulder1  3.25209 -4.83989 -32.9722
LeftArm  3.15544 27.027 -17.7712
LeftForeArm  1.89172 -72.5561 -41.6028
LeftHand  0.0995953 -5.17514 -0.785752
RightShoulder  0.767935 -2.38459 60.7616
RightArm  6.58832 -3.81832 -7.66246
RightForeArm  8.95818 71.1291 35.9325
RightHand  4.48213 21.6561 18.3781
LeftUpLeg  14.9701 -4.42463 20.9057
LeftLeg  36.6716 3.57705 3.23126
LeftFoot  -3.64653 0.119039 -1.44395
LeftToes  1.25507e-010 -3.78807e-010 5.71421e-011
212
root  -14.7146 39.0699 -42.5967 -10.8715 15.6012 -9.85971
RightUpLeg  5.17551 -2.39942 4.90029
RightLeg  5.02927 -17.2138 2.12223
RightFoot  -7.37912 -0.370335 9.23267
RightToes  5.82063e-011 0 -3.6325e-017
Spine  -1.10919 -11.4727 21.5898
Spine1  13.4318 -8.2289 -16.9175
HEad  -0.919183 5.7014 -3.55585
LeftShoulder1  3.27172 -4.89207 -32.9641
LeftArm  2.41778 26.9952 -17.8258
LeftForeArm  0.306822 -71.8631 -39.5266
LeftHand  0.133955 -5.70422 -1.07729
RightShoulder  1.35271 -1.54769 60.5223
RightArm  7.13451 -3.56924 -7.48525
RightForeArm  9.57895 71.2389 36.1254
RightHand  4.31085 21.4927 17.7797
LeftUpLeg  10.9252 -4.63164 17.6132
LeftLeg  42.4245 0.158612 0.566764
LeftFoot  -8.26677 0.118455 -2.56513
LeftToes  1.25507e-010 -3.78807e-010 5.71421e-011
213
root  -14.7923 39.1631 -41.3587 -10.1985 12.365 -9.36661
RightUpLeg  7.05981 -2.25709 5.17004
RightLeg  4.12565 -14.1831 2.78292
RightFoot  -8.4966 -0.277795 8.83981
RightToes  5.82063e-011 0 -3.6325e-017
Spine  -1.35659 -11.3197 23.8185
Spine1  12.8051 -7.66793 -19.9968
HEad  -0.678015 8.00688 -4.34686
LeftShoulder1  3.27311 -4.7759 -33.5236
LeftArm  1.39418 27.0622 -17.4065
LeftForeArm  4.24076 -71.878 -38.9203
LeftHand  0.79371 -11.4058 -5.03556
RightShoulder  1.90265 -0.743274 60.0997
RightArm  7.65139 -3.38369 -7.48021
RightForeArm  10.1714 71.6505 37.2003
RightHand  4.12639 21.0545 17.3022
LeftUpLeg  7.05905 -4.80951 13.9703
LeftLeg  45.7431 0.878225 1.40608
LeftFoot  -10.1171 0.0854588 -2.31779
LeftToes  1.25507e-010 -3.78807e-010 5.71421e-011
214
root  -14.8469 39.2406 -40.0428 -9.86542 9.62433 -8.77975
RightUpLeg  9.68727 -2.14705 5.10803
RightLeg  2.68767 -11.5501 3.42602
RightFoot  -9.34063 -0.201896 7.90924
RightToes  5.82063e-011 0 -3.6325e-017
Spine  -2.34853 -10.9397 25.1982
Spine1  13.5503 -7.09643 -22.7488
HEad  -1.0761 9.99986 -5.2142
LeftShoulder1  3.27977 -4.6175 -34.3665
LeftArm  0.580251 26.3728 -16.7522
LeftForeArm  3.73805 -71.6839 -38.4038
LeftHand  0.882014 -11.9602 -5.44064
RightShoulder  2.43988 0.0530292 59.7212
RightArm  7.82471 -3.10041 -7.3616
RightForeArm  10.4818 71.8891 37.8641
RightHand  3.96158 20.9534 16.6677
LeftUpLeg  3.43158 -6.25755 9.92714
LeftLeg  47.2322 3.55901 4.57486
LeftFoot  -11.968 0.0643527 -1.3616
LeftToes  1.25507e-010 -3.78807e-010 5.71421e-011
215
root  -14.889 39.3215 -38.7928 -9.67259 7.19312 -8.21185
RightUpLeg  12.7118 -2.27719 4.73193
RightLeg  0.476402 -9.0725 4.162
RightFoot  -9.70814 -0.165586 6.97593
RightToes  5.82063e-011 0 -3.6325e-017
Spine  -2.51145 -10.5923 25.9346
Spine1  13.7515 -6.64307 -24.3662
HEad  -1.59826 11.4085 -5.95387
LeftShoulder1  3.26282 -4.39196 -35.2879
LeftArm  -0.182745 25.1973 -16.3605
LeftForeArm  1.11613 -70.9424 -36.6833
LeftHand  0.857492 -11.5463 -5.42279
RightShoulder  2.93627 0.813227 59.1961
RightArm  7.85576 -3.03984 -7.23909
RightForeArm  11.2394 72.2726 38.9394
RightHand  3.75512 20.7412 15.9186
LeftUpLeg  -0.348382 -8.65619 6.07029
LeftLeg  47.1942 6.27453 7.67169
LeftFoot  -13.2332 0.0707564 -0.523236
LeftToes  1.25507e-010 -3.78807e-010 5.71421e-011
216
root  -14.9104 39.3938 -37.5761 -9.58269 5.14168 -7.7885
RightUpLeg  15.8156 -2.65074 4.12938
RightLeg  -1.80566 -6.33406 4.79062
RightFoot  -9.76131 -0.143909 5.62023
RightToes  5.82063e-011 0 -3.6325e-017
Spine  -2.91429 -10.092 26.7104
Spine1  14.6058 -5.90409 -25.5187
HEad  -2.28002 12.4158 -6.49774
LeftShoulder1  3.26941 -4.29034 -35.8965
LeftArm  -0.995392 23.8025 -16.5682
LeftForeArm  -1.33514 -70.1563 -35.008
LeftHand  0.899985 -11.2936 -5.8087
RightShoulder  3.3064 1.38322 58.8784
RightArm  7.50254 -2.68129 -7.10322
RightForeArm  11.5526 72.485 39.5888
RightHand  3.59976 20.6951 15.2759
LeftUpLeg  -3.85631 -12.1824 2.75615
LeftLeg  45.2124 8.58019 9.59574
LeftFoot  -14.0521 0.0845927 0.0117732
LeftToes  1.25507e-010 -3.78807e-010 5.71421e-011
217
root  -14.9325 39.4095 -36.3397 -9.68512 3.53894 -7.3918
RightUpLeg  19.0754 -3.10383 3.36556
RightLeg  -3.91766 -4.04748 5.28259
RightFoot  -9.7541 -0.129205 4.54162
RightToes  5.82063e-011 0 -3.6325e-017
Spine  -3.16683 -9.67369 27.3295
Spine1  15.3674 -5.1731 -26.7158
HEad  -2.48264 12.7691 -6.45256
LeftShoulder1  3.28075 -4.29352 -36.0217
LeftArm  -1.69206 22.9808 -16.924
LeftForeArm  -1.98036 -69.8581 -34.3803
LeftHand  0.886199 -11.5013 -5.63503
RightShoulder  3.57841 1.78649 58.8474
RightArm  7.09845 -2.43596 -7.11829
RightForeArm  12.1278 72.7886 40.5362
RightHand  3.47536 20.3804 14.9256
LeftUpLeg  -6.87739 -16.8279 0.160525
LeftLeg  41.6842 10.4072 10.2058
LeftFoot  -14.3089 0.0797058 -0.236979
LeftToes  1.25507e-010 -3.78807e-010 5.71421e-011
218
root  -14.9518 39.3663 -35.0808 -9.84528 2.34338 -6.77153
RightUpLeg  22.2122 -3.6446 2.25691
RightLeg  -5.51986 -2.01367 5.49225
RightFoot  -10.3642 -0.102202 3.7338
RightToes  5.82063e-011 0 -3.6325e-017
Spine  -3.09829 -9.38863 27.3231
Spine1  15.7904 -4.62327 -27.5736
HEad  -2.44797 13.2399 -6.2973
LeftShoulder1  3.22833 -4.15666 -36.0863
LeftArm  -1.99656 22.1886 -16.8581
LeftForeArm  -1.12954 -69.9085 -34.3808
LeftHand  1.07623 -13.1111 -6.27053
RightShoulder  3.81023 2.13729 58.7578
RightArm  6.92057 -2.37376 -7.14311
RightForeArm  12.7781 73.1457 41.731
RightHand  3.30677 20.0179 14.398
LeftUpLeg  -9.46347 -22.0475 -1.74903
LeftLeg  36.5912 12.289 10.0323
LeftFoot  -12.9249 0.0736386 -0.283576
LeftToes  1.25507e-010 -3.78807e-010 5.71421e-011
219
root  -14.9894 39.2515 -33.7971 -10.214 1.55505 -6.17992
RightUpLeg  25.507 -4.17075 1.12766
RightLeg  -6.84787 -0.266266 5.50544
RightFoot  -11.2004 -0.0799814 3.25315
RightToes  5.82063e-011 0 -3.6325e-017
Spine  -2.7824 -9.23167 27.2634
Spine1  16.0323 -4.11906 -28.4899
HEad  -2.40148 13.4198 -5.92764
LeftShoulder1  3.18683 -4.10752 -35.8194
LeftArm  -2.25247 21.9029 -16.8284
LeftForeArm  -3.01258 -70.2138 -35.3851
LeftHand  0.951798 -10.6613 -6.43578
RightShoulder  3.89086 2.24802 58.8342
RightArm  6.81906 -2.3462 -7.20134
RightForeArm  13.3591 73.5186 43.0972
RightHand  3.2255 19.6872 14.2301
LeftUpLeg  -11.5261 -28.874 -2.69231
LeftLeg  30.6314 16.2079 10.5926
LeftFoot  -9.79866 0.0903003 -2.34054
LeftToes  1.25507e-010 -3.78807e-010 5.71421e-011
220
root  -15.0173 39.0462 -32.4287 -10.9771 1.0697 -5.8324
RightUpLeg  29.2345 -5.01626 -0.048979
RightLeg  -7.85874 1.36982 5.57995
RightFoot  -12.198 -0.0652355 2.33252
RightToes  5.82063e-011 0 -3.6325e-017
Spine  -1.96195 -9.36564 27.3254
Spine1  15.7982 -3.90244 -28.9799
HEad  -2.10781 13.5059 -5.4359
LeftShoulder1  3.13239 -4.02154 -35.5793
LeftArm  -2.45327 21.9567 -16.4873
LeftForeArm  -2.77659 -70.9139 -37.1842
LeftHand  0.782156 -9.27979 -5.76994
RightShoulder  3.90501 2.26944 58.8289
RightArm  6.89899 -2.61545 -7.34914
RightForeArm  15.192 74.1781 45.6113
RightHand  3.06121 19.1169 13.8177
LeftUpLeg  -10.7162 -15.0577 -6.5421
LeftLeg  19.5978 2.15277 11.3497
LeftFoot  -7.19404 0.139687 -2.66512
LeftToes  1.25507e-010 -3.78807e-010 5.71421e-011
221
root  -15.0425 38.8091 -31.0199 -12.0431 0.789597 -5.51642
RightUpLeg  33.8286 -5.76756 -1.28736
RightLeg  -9.81307 2.57778 5.54992
RightFoot  -12.8071 -0.0566064 2.35911
RightToes  5.82063e-011 0 -3.6325e-017
Spine  -1.0166 -9.71615 27.2566
Spine1  15.4774 -3.9235 -29.346
HEad  -2.02672 13.9805 -5.27952
LeftShoulder1  3.06254 -3.91067 -35.2654
LeftArm  -2.59941 22.3285 -15.9811
LeftForeArm  -1.62083 -71.6872 -39.2743
LeftHand  0.830713 -8.93695 -6.31496
RightShoulder  3.87296 2.2361 58.6992
RightArm  7.08456 -2.82098 -7.16321
RightForeArm  17.3656 74.7123 47.7789
RightHand  3.06658 19.1049 13.8496
LeftUpLeg  -10.0681 -9.49534 -8.18724
LeftLeg  10.8266 -1.84867 11.7003
LeftFoot  -8.02193 0.0830276 -1.2025
LeftToes  1.25507e-010 -3.78807e-010 5.71421e-011
222
root  -15.068 38.5722 -29.6209 -13.4179 0.532761 -5.03027
RightUpLeg  38.3348 -6.36411 -2.92112
RightLeg  -10.9309 3.94663 5.48837
RightFoot  -13.4558 -0.0487438 2.29848
RightToes  5.82063e-011 0 -3.6325e-017
Spine  0.577062 -10.187 26.6355
Spine1  14.8435 -4.10873 -29.9645
HEad  -1.85054 14.2561 -4.80537
LeftShoulder1  2.99608 -3.83329 -34.8031
LeftArm  -2.84306 23.0719 -15.5916
LeftForeArm  0.270562 -72.7084 -42.4321
LeftHand  0.743994 -8.21445 -5.94944
RightShoulder  3.86107 2.20218 58.8526
RightArm  7.42057 -2.91006 -7.26564
RightForeArm  19.2022 75.2077 50.1428
RightHand  2.99333 18.693 13.7533
LeftUpLeg  -9.39727 -10.2096 -9.21046
LeftLeg  6.90063 -2.46149 12.0323
LeftFoot  -10.7086 0.0734324 -1.66228
LeftToes  1.25507e-010 -3.78807e-010 5.71421e-011
223
root  -15.0963 38.3426 -28.1818 -14.8561 0.345551 -4.75026
RightUpLeg  42.4106 -6.79413 -4.41367
RightLeg  -10.968 5.72916 5.05145
RightFoot  -13.7051 -0.0209106 3.48878
RightToes  5.82063e-011 0 -3.6325e-017
Spine  2.49342 -10.6648 25.9073
Spine1  13.814 -4.45108 -30.2433
HEad  -1.60926 14.4136 -4.22184
LeftShoulder1  2.95767 -3.8016 -34.4596
LeftArm  -3.21582 23.6247 -15.3225
LeftForeArm  2.88138 -73.5252 -45.2425
LeftHand  0.741109 -8.23204 -5.91646
RightShoulder  3.77617 2.03831 59.2274
RightArm  7.58177 -3.0683 -7.35376
RightForeArm  19.8447 75.4217 51.3262
RightHand  2.99022 18.4687 13.8742
LeftUpLeg  -9.40782 -10.7806 -9.87552
LeftLeg  8.83974 -2.80252 11.8902
LeftFoot  -11.0935 0.072598 -2.80869
LeftToes  1.25507e-010 -3.78807e-010 5.71421e-011
224
root  -15.1527 38.1075 -26.61 -16.0593 0.663696 -4.78018
RightUpLeg  44.7227 -7.15001 -5.40783
RightLeg  -7.5226 7.44938 4.83982
RightFoot  -14.6047 0.0472579 5.13375
RightToes  5.82063e-011 0 -3.6325e-017
Spine  3.99045 -11.0917 24.9348
Spine1  12.5657 -5.03324 -29.7068
HEad  -1.32524 14.2774 -3.41476
LeftShoulder1  2.90208 -3.72747 -34.1099
LeftArm  -3.56065 24.0283 -15.6516
LeftForeArm  3.65598 -73.9643 -47.0933
LeftHand  0.70671 -7.40947 -6.02861
RightShoulder  3.41821 1.45525 59.8728
RightArm  7.72099 -3.20667 -7.55812
RightForeArm  19.122 75.2853 50.6576
RightHand  3.08686 18.7104 14.1829
LeftUpLeg  -8.37213 -11.1209 -10.5996
LeftLeg  11.1055 -1.36517 12.1235
LeftFoot  -7.10339 0.077031 -0.928127
LeftToes  1.25507e-010 -3.78807e-010 5.71421e-011
